<svg width="48" height="49" viewBox="0 0 48 49" fill="none" xmlns="http://www.w3.org/2000/svg">
<path d="M19.2375 7.14886H8.7C6.6 7.14886 4.875 8.87386 4.875 11.0114C4.8 13.0739 6.45 14.7989 8.5125 14.8739H19.35L19.2375 7.14886Z" fill="#073042"/>
<path d="M43.125 41.4989H8.7C6.5625 41.4989 4.875 39.7739 4.875 37.6364V10.9739C4.875 13.1114 6.6 14.8364 8.7 14.8739H37.5375C37.5375 14.8739 43.1625 14.3864 43.1625 18.6239V41.4989H43.125Z" fill="#4285F4"/>
<path d="M27.075 27.8488C28.6125 26.6863 28.9125 24.5113 27.75 23.0113C27.1125 22.1863 26.1375 21.6613 25.0875 21.6238H25.2C25.3875 21.5863 25.6125 21.5863 25.8 21.6238V19.4863C25.8 19.2238 25.6875 18.9988 25.4625 18.8863C25.125 18.6988 24.7125 18.8113 24.525 19.1488C24.45 19.2613 24.4125 19.3738 24.45 19.5238V21.6988C22.575 21.9988 21.2625 23.7613 21.5625 25.6738V25.7113C21.7125 26.6113 22.2 27.4363 22.95 27.9613L16.6125 41.5363H20.7375L23.6625 35.3113C24 34.5613 24.9 34.2238 25.6875 34.5988C25.9875 34.7488 26.25 35.0113 26.4 35.3113L29.4375 41.5363H33.6375L27.075 27.8488ZM24.9375 27.2488C23.7375 27.2488 22.8 26.2738 22.8 25.0738C22.8 23.8738 23.775 22.9363 24.975 22.9738C25.5375 22.9738 26.025 23.1988 26.4375 23.5738C27.3 24.3988 27.3 25.7488 26.475 26.6113C26.1 26.9863 25.5375 27.2488 24.9375 27.2488Z" fill="#3870B2"/>
<path d="M16.95 9.02386H31.725V11.7239H16.95V9.02386Z" fill="white"/>
<path d="M23.8125 22.9364C24.975 22.9364 25.95 23.9114 25.9125 25.1114C25.9125 26.2739 24.9375 27.2489 23.7375 27.2114C22.575 27.2114 21.6375 26.2364 21.6375 25.0739C21.6375 24.5114 21.8625 23.9864 22.275 23.5739C22.6875 23.1614 23.25 22.9364 23.8125 22.9364ZM24.6375 21.6989V19.4489C24.6375 19.1864 24.525 18.9614 24.3 18.8489C23.9625 18.6614 23.55 18.7739 23.3625 19.1114C23.2875 19.2239 23.25 19.3364 23.2875 19.4864V21.6614C21.4125 21.9614 20.1 23.7239 20.4 25.6364V25.6739C20.55 26.5739 21.0375 27.3989 21.7875 27.9239L13.8 45.0614C13.5 45.6614 13.5375 46.4114 13.95 46.9739C14.55 47.8364 15.7125 48.0614 16.575 47.4614C16.875 47.2739 17.1 46.9739 17.25 46.6739L22.575 35.2739C22.9125 34.5239 23.8125 34.1864 24.6 34.5614C24.9 34.7114 25.1625 34.9739 25.3125 35.2739L30.75 46.5614C31.2 47.4989 32.325 47.8739 33.2625 47.4239C34.2 46.9739 34.575 45.8489 34.125 44.9114L25.9125 27.8489C27.4125 26.6489 27.675 24.4364 26.475 22.9364C26.025 22.3364 25.3875 21.9239 24.6375 21.6989Z" fill="#073042"/>
<path d="M29.55 11.4239C28.9875 11.4239 28.5375 11.0114 28.5375 10.4489C28.5375 10.1864 28.65 9.88635 28.8375 9.69885C29.25 9.32385 29.85 9.32385 30.2625 9.69885C30.45 9.88635 30.5625 10.1489 30.5625 10.4114C30.525 10.9739 30.1125 11.3864 29.55 11.4239ZM18.45 11.3864C17.8875 11.3864 17.4375 10.9364 17.4375 10.4114C17.4375 10.1489 17.55 9.88635 17.7375 9.69885C18.075 9.28635 18.7125 9.21135 19.125 9.54885H19.1625C19.575 9.92385 19.6125 10.5614 19.2375 10.9739L19.125 11.1239C18.9375 11.3114 18.675 11.4239 18.4125 11.4239M29.85 5.34885L31.8375 1.89885C31.95 1.71135 31.875 1.48635 31.725 1.33635C31.5375 1.26135 31.35 1.29885 31.2375 1.44885L29.175 5.01135C25.875 3.54885 22.125 3.54885 18.8625 5.01135L16.8375 1.48635C16.7625 1.37385 16.6125 1.26135 16.4625 1.26135C16.3125 1.26135 16.1625 1.33635 16.0875 1.48635C16.0125 1.59885 16.0125 1.78635 16.0875 1.89885L18.1125 5.34885C14.5875 7.26135 12.3 10.8614 11.9625 14.8364H36.0375C35.7375 10.8239 33.4125 7.26135 29.8875 5.34885" fill="#3DDC84"/>
<path d="M39.6 22.2988H38.025C37.95 22.3363 37.875 22.4113 37.875 22.5238V47.4613C37.875 47.5738 37.95 47.6488 38.0625 47.6488H39.7125C41.625 47.6488 43.1625 46.0738 43.1625 44.1988V18.8113C43.1625 20.7238 41.625 22.2613 39.7125 22.2613H39.6V22.2988Z" fill="#073042"/>
</svg>
