<svg width="581" height="869" viewBox="0 0 581 869" fill="none" xmlns="http://www.w3.org/2000/svg">
<g filter="url(#filter0_f_748_171)">
<path d="M966.338 258.495C966.338 454.995 807.043 614.289 610.544 614.289C414.044 614.289 254.75 454.995 254.75 258.495C254.75 61.9956 414.044 -97.2987 610.544 -97.2987C807.043 -97.2987 966.338 61.9956 966.338 258.495Z" fill="url(#paint0_radial_748_171)"/>
<path d="M966.338 258.495C966.338 454.995 807.043 614.289 610.544 614.289C414.044 614.289 254.75 454.995 254.75 258.495C254.75 61.9956 414.044 -97.2987 610.544 -97.2987C807.043 -97.2987 966.338 61.9956 966.338 258.495Z" fill="url(#paint1_radial_748_171)"/>
<path d="M966.338 258.495C966.338 454.995 807.043 614.289 610.544 614.289C414.044 614.289 254.75 454.995 254.75 258.495C254.75 61.9956 414.044 -97.2987 610.544 -97.2987C807.043 -97.2987 966.338 61.9956 966.338 258.495Z" fill="url(#paint2_radial_748_171)" fill-opacity="0.61"/>
</g>
<defs>
<filter id="filter0_f_748_171" x="0.109406" y="-351.939" width="1220.87" height="1220.87" filterUnits="userSpaceOnUse" color-interpolation-filters="sRGB">
<feFlood flood-opacity="0" result="BackgroundImageFix"/>
<feBlend mode="normal" in="SourceGraphic" in2="BackgroundImageFix" result="shape"/>
<feGaussianBlur stdDeviation="127.32" result="effect1_foregroundBlur_748_171"/>
</filter>
<radialGradient id="paint0_radial_748_171" cx="0" cy="0" r="1" gradientUnits="userSpaceOnUse" gradientTransform="translate(645.234 257.344) rotate(30.5679) scale(374.639)">
<stop stop-color="#FF76BB" stop-opacity="0.71"/>
<stop offset="1" stop-color="#FFD462" stop-opacity="0"/>
</radialGradient>
<radialGradient id="paint1_radial_748_171" cx="0" cy="0" r="1" gradientUnits="userSpaceOnUse" gradientTransform="translate(473.572 257.344) rotate(9.75242) scale(244.999)">
<stop stop-color="#FF76BB"/>
<stop offset="0.0001" stop-color="#FF76BB" stop-opacity="0.46"/>
<stop offset="1" stop-color="#FF76BB" stop-opacity="0"/>
</radialGradient>
<radialGradient id="paint2_radial_748_171" cx="0" cy="0" r="1" gradientUnits="userSpaceOnUse" gradientTransform="translate(792.373 187.547) rotate(98.3787) scale(245.971)">
<stop stop-color="#0047FF"/>
<stop offset="0.9999" stop-color="#BE60E6" stop-opacity="0.0104167"/>
<stop offset="1" stop-color="#436ACF" stop-opacity="0"/>
</radialGradient>
</defs>
</svg>
