<svg width="49" height="39" viewBox="0 0 49 39" fill="none" xmlns="http://www.w3.org/2000/svg">
<g clip-path="url(#clip0_744_293)">
<path d="M10.4562 0.511841C7.71739 0.511841 5.6907 2.91843 5.78145 5.52831C5.86864 8.0356 5.75539 11.2832 4.94108 13.9315C4.12433 16.5875 2.74283 18.27 0.48645 18.4861V20.9248C2.74283 21.1409 4.12433 22.8234 4.94108 25.4796C5.75539 28.1278 5.86864 31.3751 5.78145 33.8826C5.6907 36.4921 7.71739 38.899 10.4566 38.899H38.5203C41.2593 38.899 43.2854 36.4925 43.1946 33.8826C43.1076 31.3753 43.2207 28.1278 44.035 25.4796C44.8523 22.8236 46.2301 21.1407 48.4865 20.9248V18.4861C46.2301 18.27 44.8523 16.5875 44.0352 13.9315C43.2207 11.2836 43.1076 8.03579 43.1946 5.52831C43.2854 2.91881 41.2593 0.511841 38.5203 0.511841H10.4558H10.4562ZM33.0289 24.1416C33.0289 27.7354 30.359 29.9148 25.928 29.9148H18.3848C18.1691 29.9147 17.9622 29.8286 17.8097 29.6755C17.6571 29.5223 17.5715 29.3146 17.5715 29.098V10.3129C17.5714 10.2056 17.5925 10.0994 17.6333 10.0003C17.6742 9.90114 17.7341 9.81108 17.8097 9.73522C17.8852 9.65936 17.9749 9.59918 18.0736 9.55812C18.1724 9.51707 18.2782 9.49593 18.385 9.49593H25.8848C29.5795 9.49593 32.0043 11.5053 32.0043 14.5901C32.0043 16.7554 30.373 18.6939 28.2949 19.0333V19.1464C31.1241 19.4579 33.0289 21.4248 33.0289 24.1416ZM25.1052 12.0851H20.8045V18.1839H24.427C27.2271 18.1839 28.7714 17.0519 28.7714 15.0284C28.7714 13.1323 27.4433 12.0851 25.1052 12.0851ZM20.8047 20.6039V27.3248H25.2638C28.1791 27.3248 29.7237 26.1504 29.7237 23.9432C29.7237 21.7356 28.1361 20.6035 25.0763 20.6035H20.8047V20.6039Z" fill="#7E13F8"/>
</g>
<defs>
<clipPath id="clip0_744_293">
<rect width="48" height="38.4" fill="white" transform="translate(0.48645 0.511841)"/>
</clipPath>
</defs>
</svg>
