<svg width="49" height="50" viewBox="0 0 49 50" fill="none" xmlns="http://www.w3.org/2000/svg">
<path d="M9.33946 41.9406L5.97046 3.5575H43.0025L39.629 41.9345L24.464 46.2036L9.33946 41.9406Z" fill="#1572B6"/>
<path d="M24.4865 42.9413L36.7415 39.4915L39.6244 6.69659H24.4865V42.9413Z" fill="#33A9DC"/>
<path d="M24.4865 20.6023H30.6215L31.0444 15.7817H24.4865V11.0739H36.1115L36.0005 12.3365L34.8619 25.3101H24.4865V20.6023Z" fill="white"/>
<path d="M24.5149 32.828L24.4939 32.8341L19.3309 31.4177L19.0009 27.6633H14.3464L14.9959 35.0548L24.4924 37.7323L24.5149 37.7262V32.828Z" fill="#EBEBEB"/>
<path d="M30.2269 25.1106L29.6689 31.4146L24.4984 32.8311V37.7293L34.0024 35.0548L34.0729 34.2597L34.8784 25.1106H30.2269Z" fill="white"/>
<path d="M24.503 11.0739V15.7817H13.304L13.211 14.7232L12.9995 12.3365L12.8885 11.0739H24.503ZM24.4865 20.6023V25.3101H19.388L19.295 24.2516L19.085 21.8649L18.974 20.6023H24.4865Z" fill="#EBEBEB"/>
</svg>
