<svg width="33" height="49" viewBox="0 0 33 49" fill="none" xmlns="http://www.w3.org/2000/svg">
<g clip-path="url(#clip0_744_391)">
<path d="M8.23628 48.5114C12.6198 48.5114 16.1775 44.9274 16.1775 40.5114V32.5114H8.23628C3.85275 32.5114 0.295105 36.0954 0.295105 40.5114C0.295105 44.9274 3.85275 48.5114 8.23628 48.5114Z" fill="#0ACF83"/>
<path d="M0.295105 24.5114C0.295105 20.0954 3.85275 16.5114 8.23628 16.5114H16.1775V32.5114H8.23628C3.85275 32.5114 0.295105 28.9274 0.295105 24.5114Z" fill="#A259FF"/>
<path d="M0.295105 8.51135C0.295105 4.09535 3.85275 0.511353 8.23628 0.511353H16.1775V16.5114H8.23628C3.85275 16.5114 0.295105 12.9274 0.295105 8.51135Z" fill="#F24E1E"/>
<path d="M16.1775 0.511353H24.1186C28.5022 0.511353 32.0598 4.09535 32.0598 8.51135C32.0598 12.9274 28.5022 16.5114 24.1186 16.5114H16.1775V0.511353Z" fill="#FF7262"/>
<path d="M32.0598 24.5114C32.0598 28.9274 28.5022 32.5114 24.1186 32.5114C19.7351 32.5114 16.1775 28.9274 16.1775 24.5114C16.1775 20.0954 19.7351 16.5114 24.1186 16.5114C28.5022 16.5114 32.0598 20.0954 32.0598 24.5114Z" fill="#1ABCFE"/>
</g>
<defs>
<clipPath id="clip0_744_391">
<rect width="31.7647" height="48" fill="white" transform="translate(0.295105 0.511353)"/>
</clipPath>
</defs>
</svg>
