<svg width="49" height="50" viewBox="0 0 49 50" fill="none" xmlns="http://www.w3.org/2000/svg">
<path d="M9.33946 41.9406L5.96896 3.5575H43.004L39.629 41.9345L24.464 46.2036L9.33946 41.9406Z" fill="#E44F26"/>
<path d="M24.4865 42.9413L36.7415 39.4915L39.6244 6.69659H24.4865V42.9413Z" fill="#F1662A"/>
<path d="M24.4865 20.9313H18.3514L17.9285 16.1107H24.4865V11.4029H12.8615L12.9725 12.667L14.111 25.6391H24.4865V20.9313ZM24.4865 33.157L24.4655 33.1631L19.3024 31.7482L18.9725 27.9938H14.3179L14.9675 35.3837L24.4655 38.0613L24.4865 38.0552V33.157Z" fill="#EBEBEB"/>
<path d="M24.4699 20.9313V25.6391H30.1789L29.6419 31.7451L24.4699 33.1616V38.0598L33.9754 35.3837L34.0444 34.5887L35.1334 22.1954L35.2474 20.9313H33.9979H24.4699ZM24.4699 11.4029V16.1107H35.6689L35.7619 15.0537L35.9734 12.667L36.0844 11.4029H24.4699Z" fill="white"/>
</svg>
