<svg width="49" height="50" viewBox="0 0 49 50" fill="none" xmlns="http://www.w3.org/2000/svg">
<path d="M3.48647 3.5575H45.4865V46.2036H3.48647V3.5575Z" fill="#F5DE19"/>
<path d="M31.7 36.8748C32.0578 37.6129 32.6138 38.2333 33.3038 38.6644C33.9938 39.0956 34.7898 39.32 35.6 39.3118C37.235 39.3118 38.2805 38.4817 38.2805 37.3317C38.2805 35.961 37.2065 35.4706 35.4065 34.6709L34.4195 34.2414C31.5695 33.0093 29.6795 31.4664 29.6795 28.2039C29.6795 25.1989 31.9295 22.9097 35.459 22.9097C36.6015 22.826 37.7431 23.0856 38.7413 23.6563C39.7394 24.227 40.55 25.0834 41.072 26.1189L37.9865 28.1217C37.7855 27.6083 37.4356 27.1691 36.9831 26.8622C36.5306 26.5554 35.997 26.3955 35.453 26.4037C35.2156 26.3795 34.9759 26.4059 34.7491 26.481C34.5223 26.5562 34.3135 26.6784 34.1358 26.8401C33.9581 27.0017 33.8156 27.1991 33.7172 27.4198C33.6188 27.6405 33.5668 27.8795 33.5645 28.1217C33.5645 29.3234 34.298 29.8108 35.9915 30.5586L36.9785 30.9881C40.3325 32.4488 42.2285 33.9368 42.2285 37.283C42.2285 40.8912 39.437 42.8681 35.6885 42.8681C34.2279 42.9626 32.7716 42.6259 31.4954 41.8987C30.2191 41.1714 29.1774 40.0846 28.496 38.7695L31.7 36.8748ZM17.7575 37.2221C18.377 38.3385 18.941 39.2828 20.297 39.2828C21.593 39.2828 22.412 38.768 22.412 36.7652V23.1382H26.3585V36.8185C26.3585 40.9673 23.9585 42.856 20.465 42.856C19.2301 42.9245 18.0037 42.612 16.947 41.9596C15.8903 41.3072 15.0527 40.3454 14.5445 39.2006L17.7575 37.2221Z" fill="black"/>
</svg>
