<svg width="49" height="44" viewBox="0 0 49 44" fill="none" xmlns="http://www.w3.org/2000/svg">
<g clip-path="url(#clip0_744_288)">
<path d="M39.952 14.3333C39.4412 14.1577 38.926 13.9951 38.407 13.8455C38.4942 13.4885 38.5745 13.1359 38.6457 12.7895C39.8153 7.10113 39.0507 2.51842 36.439 1.00958C33.935 -0.436899 29.8398 1.07138 25.7039 4.67762C25.2963 5.03367 24.8977 5.39997 24.5086 5.77619C24.2481 5.52602 23.983 5.2807 23.7134 5.04037C19.3788 1.18447 15.034 -0.440656 12.4252 1.07251C9.92334 2.5235 9.18253 6.83156 10.2355 12.2226C10.3403 12.7565 10.4586 13.2877 10.5903 13.8156C9.97528 13.9907 9.38184 14.177 8.8139 14.3754C3.7319 16.1506 0.486465 18.9326 0.486465 21.8182C0.486465 24.7985 3.97059 27.7878 9.26372 29.6004C9.69284 29.7468 10.1255 29.8824 10.5614 30.0071C10.4198 30.5757 10.2942 31.1481 10.1845 31.7237C9.18065 37.0212 9.96459 41.2275 12.4597 42.6693C15.0367 44.1582 19.3619 42.6279 23.5733 38.9394C23.9148 38.6395 24.2488 38.3312 24.575 38.0146C24.9964 38.422 25.429 38.8175 25.8725 39.2007C29.9521 42.7177 33.9811 44.1379 36.4737 42.6922C39.0483 41.1989 39.8851 36.6803 38.7987 31.1827C38.7131 30.752 38.6172 30.3235 38.5109 29.8974C38.8147 29.8073 39.1128 29.7145 39.4034 29.6179C44.9062 27.7914 48.4865 24.8383 48.4865 21.8182C48.4865 18.922 45.1362 16.1213 39.952 14.3333ZM38.7586 27.668C38.4961 27.755 38.2268 27.8389 37.9523 27.9206C37.3448 25.9938 36.5251 23.9451 35.5218 21.8281C36.4792 19.7618 37.2674 17.7391 37.8578 15.8249C38.3489 15.9673 38.8253 16.1174 39.2847 16.2757C43.7266 17.8079 46.436 20.0728 46.436 21.8182C46.436 23.6772 43.5098 26.0906 38.7586 27.668ZM36.7872 31.5817C37.2676 34.0126 37.336 36.2105 37.0178 37.9288C36.7321 39.4727 36.1572 40.502 35.4462 40.9143C33.9337 41.7916 30.6987 40.6513 27.2099 37.6434C26.7975 37.2871 26.395 36.9194 26.003 36.5407C27.3556 35.0587 28.7073 33.3359 30.0265 31.4224C32.347 31.2162 34.5393 30.8788 36.5273 30.4184C36.6231 30.804 36.7098 31.1919 36.7872 31.5817ZM16.8507 40.7627C15.3728 41.2855 14.1957 41.3006 13.4842 40.8895C11.9701 40.0147 11.3407 36.6373 12.1992 32.107C12.3013 31.5716 12.4181 31.0392 12.5497 30.5104C14.5158 30.9462 16.6921 31.2596 19.018 31.4485C20.3463 33.3209 21.737 35.0418 23.1385 36.5488C22.8407 36.8375 22.5358 37.1189 22.2241 37.3926C20.3617 39.0236 18.4955 40.1808 16.8507 40.7627ZM9.92709 27.6565C7.58653 26.8549 5.65359 25.8133 4.32872 24.6766C3.13809 23.6552 2.53715 22.641 2.53715 21.8182C2.53715 20.067 5.14284 17.8334 9.4889 16.3154C10.0163 16.1313 10.5683 15.9575 11.1412 15.7945C11.7419 17.7519 12.5298 19.7986 13.4806 21.8682C12.5174 23.9684 11.7183 26.0477 11.1117 28.0283C10.7139 27.9141 10.3189 27.7901 9.92709 27.6565ZM12.248 11.8279C11.3459 7.20914 11.945 3.72501 13.4527 2.85055C15.0584 1.91917 18.6093 3.24711 22.352 6.57664C22.596 6.79425 22.8361 7.01626 23.0722 7.24258C21.6775 8.74297 20.2996 10.4511 18.9832 12.3124C16.7257 12.522 14.5647 12.8587 12.578 13.3097C12.4556 12.8187 12.3455 12.3245 12.248 11.8279ZM32.953 16.9505C32.4838 16.1384 31.9971 15.3365 31.4933 14.5454C33.0248 14.7395 34.4922 14.997 35.8702 15.3119C35.4565 16.6404 34.9409 18.0292 34.334 19.4531C33.8903 18.6098 33.4299 17.7754 32.953 16.9505ZM24.5095 8.71104C25.4553 9.73766 26.4025 10.8838 27.3342 12.1274C25.4442 12.0379 23.5511 12.0376 21.661 12.1262C22.5937 10.8941 23.549 9.7495 24.5095 8.71104ZM16.0118 16.9644C15.5409 17.7827 15.0891 18.6118 14.6568 19.4512C14.0598 18.0324 13.5488 16.6372 13.1317 15.2899C14.5012 14.9829 15.9616 14.732 17.4833 14.5415C16.974 15.3374 16.4833 16.1454 16.0118 16.9644ZM17.527 29.2411C15.9548 29.0652 14.4725 28.8272 13.1033 28.5285C13.5271 27.1572 14.0493 25.7323 14.6592 24.283C15.0932 25.123 15.5469 25.9527 16.0199 26.7713C16.5063 27.6129 17.0099 28.4372 17.527 29.2411ZM24.5662 35.0702C23.5942 34.0197 22.6248 32.8575 21.6781 31.6075C22.5972 31.6435 23.5342 31.6619 24.4865 31.6619C25.4648 31.6619 26.432 31.64 27.3839 31.5975C26.4492 32.87 25.5055 34.034 24.5662 35.0702ZM34.3533 24.209C34.9949 25.6743 35.5357 27.0916 35.965 28.4395C34.5734 28.7577 33.0708 29.014 31.4875 29.2042C31.9949 28.3985 32.4861 27.5826 32.9611 26.7573C33.444 25.9183 33.9081 25.0687 34.3533 24.209ZM31.1849 25.7308C30.4578 26.9963 29.6898 28.2377 28.8822 29.4532C27.4193 29.557 25.9531 29.6085 24.4865 29.6078C22.9927 29.6078 21.5397 29.5612 20.1406 29.4702C19.3119 28.2576 18.5293 27.014 17.7944 25.7421C17.063 24.4769 16.38 23.1844 15.7465 21.8672C16.3784 20.5498 17.0595 19.2566 17.7884 17.9905L17.7882 17.9907C18.5168 16.7242 19.2932 15.4859 20.1157 14.2785C21.5431 14.1703 23.0069 14.1139 24.4863 14.1139C25.9724 14.1139 27.4383 14.1708 28.8653 14.2798C29.6795 15.4854 30.4509 16.7194 31.1782 17.9796C31.9095 19.2429 32.5996 20.5298 33.2474 21.8381C32.6062 23.1598 31.9183 24.4582 31.1849 25.7308ZM35.4149 2.78931C37.0222 3.71806 37.6473 7.46331 36.6374 12.3748C36.5729 12.6881 36.5005 13.0073 36.4218 13.3309C34.4302 12.8703 32.2677 12.5279 30.0037 12.315C28.6848 10.4333 27.3181 8.7225 25.9462 7.24146C26.3057 6.89421 26.6738 6.55597 27.0502 6.22704C30.5939 3.1374 33.9059 1.91748 35.4149 2.78931ZM24.4865 17.5238C26.8537 17.5238 28.7727 19.4465 28.7727 21.8182C28.7727 24.1899 26.8537 26.1125 24.4865 26.1125C22.1193 26.1125 20.2002 24.1899 20.2002 21.8182C20.2002 19.4465 22.1193 17.5238 24.4865 17.5238Z" fill="#00D8FF"/>
</g>
<defs>
<clipPath id="clip0_744_288">
<rect width="48" height="42.8308" fill="white" transform="translate(0.486465 0.46521)"/>
</clipPath>
</defs>
</svg>
