<svg width="49" height="29" viewBox="0 0 49 29" fill="none" xmlns="http://www.w3.org/2000/svg">
<path d="M12.4865 9.95234C14.0865 3.60634 18.0865 0.43335 24.4865 0.43335C34.0864 0.43335 35.2864 7.57259 40.0865 8.76246C43.2864 9.55571 46.0865 8.36584 48.4865 5.19284C46.8865 11.5388 42.8865 14.7118 36.4865 14.7118C26.8864 14.7118 25.6864 7.57259 20.8864 6.38272C17.6864 5.58947 14.8865 6.77934 12.4865 9.95234ZM0.48645 24.2308C2.08645 17.8848 6.08645 14.7118 12.4865 14.7118C22.0865 14.7118 23.2865 21.8511 28.0865 23.0409C31.2865 23.8342 34.0864 22.6443 36.4865 19.4713C34.8865 25.8173 30.8864 28.9903 24.4865 28.9903C14.8865 28.9903 13.6865 21.8511 8.88645 20.6612C5.68645 19.868 2.88645 21.0578 0.48645 24.2308Z" fill="#44A8B3"/>
</svg>
