<svg width="49" height="49" viewBox="0 0 49 49" fill="none" xmlns="http://www.w3.org/2000/svg">
<path d="M43.5019 3.24982H5.43794C4.35104 3.24982 3.46994 4.13092 3.46994 5.21782V43.2818C3.46994 44.3687 4.35104 45.2498 5.43794 45.2498H43.5019C44.5888 45.2498 45.4699 44.3687 45.4699 43.2818V5.21782C45.4699 4.13092 44.5888 3.24982 43.5019 3.24982Z" fill="#3178C6"/>
<path fill-rule="evenodd" clip-rule="evenodd" d="M27.8375 35.8883V40.4903C28.6736 40.903 29.5647 41.1935 30.4835 41.3528C31.5452 41.5488 32.6228 41.6453 33.7025 41.6408C34.7547 41.6458 35.8045 41.5398 36.8345 41.3243C37.7592 41.1375 38.6415 40.7815 39.437 40.2743C40.1755 39.7976 40.7841 39.1451 41.2085 38.3753C41.9684 36.7813 42.0686 34.9519 41.4875 33.2843C41.2422 32.6608 40.8768 32.0915 40.412 31.6088C39.913 31.0956 39.3463 30.653 38.7275 30.2933C38.015 29.8761 37.2748 29.5082 36.512 29.1923C35.912 28.9433 35.372 28.7013 34.892 28.4663C34.4656 28.2622 34.0576 28.0218 33.6725 27.7478C33.3708 27.5364 33.1088 27.2733 32.8985 26.9708C32.7167 26.6962 32.6221 26.3731 32.627 26.0438C32.6229 25.7408 32.7074 25.4431 32.87 25.1873C33.0465 24.9196 33.282 24.6959 33.5585 24.5333C33.8964 24.3344 34.2641 24.1911 34.6475 24.1088C35.1182 24.0043 35.5993 23.9539 36.0815 23.9588C36.487 23.9602 36.8919 23.9893 37.2935 24.0458C37.7271 24.1045 38.1561 24.1932 38.5775 24.3113C39.006 24.4301 39.4252 24.5805 39.8315 24.7613C40.2257 24.9371 40.6028 25.149 40.958 25.3943V21.0998C40.2186 20.8201 39.4519 20.619 38.6705 20.4998C37.7268 20.3625 36.774 20.2978 35.8205 20.3063C34.7781 20.3007 33.7388 20.4191 32.7245 20.6588C31.8076 20.8684 30.9357 21.2408 30.1505 21.7583C29.421 22.2443 28.8186 22.8981 28.394 23.6648C27.9439 24.5163 27.7212 25.4696 27.7475 26.4323C27.7142 27.7055 28.1336 28.9492 28.931 29.9423C29.9092 31.0435 31.1428 31.8877 32.5235 32.4008C33.1535 32.6608 33.741 32.9153 34.286 33.1643C34.7777 33.3831 35.2503 33.6425 35.699 33.9398C36.0608 34.1752 36.3786 34.4722 36.638 34.8173C36.866 35.1304 36.987 35.5086 36.983 35.8958C36.985 36.186 36.9105 36.4716 36.767 36.7238C36.6074 36.9949 36.3833 37.2221 36.1145 37.3853C35.7781 37.5904 35.4101 37.7384 35.0255 37.8233C34.5244 37.9354 34.0119 37.9882 33.4985 37.9808C32.4909 37.979 31.4914 37.8013 30.545 37.4558C29.5562 37.099 28.6392 36.5682 27.8375 35.8883ZM20.1065 24.4313H26.1065V20.6408H9.37695V24.4313H15.35V41.3123H20.1065V24.4313Z" fill="white"/>
</svg>
